<svg width="16" height="22" viewBox="0 0 16 22" fill="none" xmlns="http://www.w3.org/2000/svg">
<path fill-rule="evenodd" clip-rule="evenodd" d="M16 6V0H10V2H12.575L8.82103 5.75397C7.98557 5.25132 7.04523 5 6 5C5.91352 5 5.82775 5.00172 5.74271 5.00516C5.66198 5.00172 5.58108 5 5.5 5C3.96667 5 2.66667 5.53333 1.6 6.6C0.533333 7.66667 0 8.96667 0 10.5C0 12.0333 0.533333 13.3333 1.6 14.4C2.54874 15.3487 3.68207 15.8756 5 15.9804V18H3V20H5V22H7V20H9V18H7V15.9C8.31667 15.6667 9.39583 15.0375 10.2375 14.0125C11.0792 12.9875 11.5 11.8 11.5 10.45C11.5 9.15779 11.1098 8.03194 10.3295 7.07245L14 3.425V6H16ZM5.75 7.00782C4.89033 7.06228 4.14866 7.40134 3.525 8.025C2.84167 8.70833 2.5 9.53333 2.5 10.5C2.5 11.4667 2.84167 12.2917 3.525 12.975C4.14866 13.5987 4.89033 13.9377 5.75 13.9922C6.60967 13.9377 7.35134 13.5987 7.975 12.975C8.65833 12.2917 9 11.4667 9 10.5C9 9.53333 8.65833 8.70833 7.975 8.025C7.35134 7.40134 6.60967 7.06228 5.75 7.00782Z" fill="#716654"/>
</svg>
